<svg width="16" height="16" viewBox="0 0 16 16" fill="none" xmlns="http://www.w3.org/2000/svg">
<path fill-rule="evenodd" clip-rule="evenodd" d="M15.9512 4.70732C15.9024 3.85366 15.7805 3.26829 15.5854 2.7561C15.3902 2.21951 15.0976 1.78049 14.6585 1.34146C14.2195 0.902439 13.7805 0.634146 13.2439 0.414634C12.7317 0.219512 12.1463 0.0731707 11.2927 0.0487805C10.439 0 10.1707 0 8 0C5.82927 0 5.56098 0 4.70732 0.0487805C3.85366 0.097561 3.26829 0.219512 2.7561 0.414634C2.21951 0.609756 1.78049 0.902439 1.34146 1.34146C0.902439 1.78049 0.634146 2.2439 0.414634 2.7561C0.219512 3.26829 0.0731707 3.85366 0.0487805 4.70732C0 5.56098 0 5.82927 0 8C0 10.1707 0 10.439 0.0487805 11.2927C0.097561 12.1463 0.219512 12.7317 0.414634 13.2439C0.609756 13.7805 0.902439 14.2195 1.34146 14.6585C1.78049 15.0976 2.2439 15.3902 2.7561 15.5854C3.26829 15.7805 3.85366 15.9268 4.70732 15.9512C5.56098 16 5.82927 16 8 16C10.1707 16 10.439 16 11.2927 15.9512C12.1463 15.9024 12.7317 15.7805 13.2439 15.5854C13.7805 15.3902 14.2195 15.0976 14.6585 14.6585C15.0976 14.2195 15.3902 13.7805 15.5854 13.2439C15.7805 12.7317 15.9268 12.1463 15.9512 11.2927C16 10.439 16 10.1707 16 8C16 5.82927 16 5.56098 15.9512 4.70732ZM14.5122 11.2439C14.4634 12.0244 14.3415 12.439 14.2439 12.7317C14.0976 13.0976 13.9268 13.3659 13.6341 13.6585C13.3659 13.9512 13.0976 14.122 12.7073 14.2683C12.439 14.3902 12 14.5122 11.2195 14.5366C11.0594 14.5412 10.9208 14.5457 10.787 14.5501C10.2075 14.5693 9.71945 14.5854 7.97561 14.5854C5.82927 14.5854 5.58537 14.5854 4.7561 14.5366C3.97561 14.4878 3.56098 14.3659 3.26829 14.2683C2.90244 14.122 2.63415 13.9512 2.34146 13.6585C2.04878 13.3902 1.87805 13.122 1.73171 12.7317C1.60976 12.4634 1.4878 12.0244 1.46341 11.2439C1.41463 10.3902 1.41463 10.1463 1.41463 8C1.41463 5.85366 1.41463 5.60976 1.46341 4.78049C1.5122 4 1.63415 3.58537 1.73171 3.29268C1.87805 2.92683 2.04878 2.65854 2.34146 2.36585C2.63415 2.07317 2.87805 1.90244 3.26829 1.7561C3.56098 1.63415 3.97561 1.5122 4.7561 1.4878C5.60976 1.43902 5.85366 1.43902 8 1.43902C10.1463 1.43902 10.3902 1.43902 11.2439 1.4878C11.9996 1.51142 12.4123 1.64935 12.7034 1.74665L12.7317 1.7561C13.0976 1.90244 13.3659 2.07317 13.6585 2.36585C13.9512 2.65854 14.122 2.90244 14.2683 3.29268C14.3902 3.58537 14.5122 4 14.5366 4.78049C14.5854 5.63415 14.5854 5.87805 14.5854 8C14.5854 9.97922 14.5641 10.3458 14.5217 11.0788L14.5122 11.2439ZM13.2195 3.73171C13.2195 4.26829 12.7805 4.68293 12.2683 4.68293C11.7317 4.68293 11.3171 4.2439 11.3171 3.73171C11.3171 3.19512 11.7561 2.78049 12.2683 2.78049C12.8049 2.7561 13.2195 3.19512 13.2195 3.73171ZM3.90247 8C3.90247 5.73171 5.73173 3.90244 8.00003 3.90244C10.2683 3.90244 12.0976 5.73171 12.0976 8C12.0976 10.2683 10.2683 12.0976 8.00003 12.0976C5.73173 12.0976 3.90247 10.2683 3.90247 8ZM5.34149 8C5.34149 9.46341 6.53661 10.6585 8.00003 10.6585C9.46344 10.6585 10.6586 9.46341 10.6586 8C10.6586 6.53658 9.46344 5.34146 8.00003 5.34146C6.53661 5.34146 5.34149 6.53658 5.34149 8Z" fill="white"/>
</svg>
